<svg version="1.1" xmlns="http://www.w3.org/2000/svg" xmlns:xlink="http://www.w3.org/1999/xlink" x="0px" y="0px" viewBox="0 0 38.1 38.1" xml:space="preserve" stroke-width="3" class="LVwVZ3ot7Lm4dkJtOSU7" style="">
<g>
	<path fill="#737373" d="M16.6,24.7H4.7l-2.3,6.5H0L9.4,6.5H12l9.4,24.8H19L16.6,24.7z M9.8,10.7L5.4,22.8h10.5l-4.3-12.1l-0.8-2.5
		h-0.1L9.8,10.7z"></path>
	<path fill="#737373" d="M36.3,28.5L36.3,28.5c-1.2,1.8-3.5,3-6.2,3c-3.5,0-6-1.8-6-6.1c0-3.7,2.3-5.8,7-5.8c1.8,0,3.5,0.4,4.9,0.9
		v-2.4c0-3.7-1.6-4.9-5-4.9c-2,0-3.8,0.4-5.5,1.2l-0.2-1.8c1.9-0.9,3.8-1.3,6.1-1.3c4.8,0,6.7,1.9,6.7,7v12.9h-1.5L36.3,28.5z
		 M36,22.1c-0.5-0.4-2.2-0.9-4.6-0.9c-3.8,0-5.4,1.6-5.4,4.3c0,3.3,2,4.4,4.6,4.4c2.8,0,5.4-2,5.4-3.9V22.1z"></path>
</g>
</svg>