<svg version="1.1" xmlns="http://www.w3.org/2000/svg" xmlns:xlink="http://www.w3.org/1999/xlink" x="0px" y="0px" viewBox="0 0 38.1 38.1" xml:space="preserve" class="LVwVZ3ot7Lm4dkJtOSU7" style="">
<path fill="none" stroke="#737373" stroke-width="2.3574" stroke-linejoin="round" stroke-miterlimit="10" d="M19.2,5.5L19.2,5.5c6.3,0,11.5,5.1,11.5,11.5v10.9l3.3,3h-30l3.6-3V17C7.7,10.6,12.8,5.5,19.2,5.5z"></path>
<path fill="#737373" d="M21,6.4h-3.9c-0.4,0-0.8-0.3-0.8-0.8V2.7C16.3,1.2,17.5,0,19,0h0c1.5,0,2.7,1.2,2.7,2.7v2.9
	C21.7,6,21.4,6.4,21,6.4z"></path>
<path fill="#737373" stroke="#737373" d="M22.9,34.2c0,2.1-1.7,3.9-3.9,3.9s-3.9-1.7-3.9-3.9c0-0.2,0-0.3,0-0.5h7.7C22.9,33.9,22.9,34,22.9,34.2z"></path>
</svg>